<?xml version="1.0" encoding="UTF-8" standalone="no"?>
<!-- Created with Inkscape (http://www.inkscape.org/) -->

<svg
   xmlns:dc="http://purl.org/dc/elements/1.1/"
   xmlns:cc="http://creativecommons.org/ns#"
   xmlns:rdf="http://www.w3.org/1999/02/22-rdf-syntax-ns#"
   xmlns:svg="http://www.w3.org/2000/svg"
   xmlns="http://www.w3.org/2000/svg"
   xmlns:sodipodi="http://sodipodi.sourceforge.net/DTD/sodipodi-0.dtd"
   xmlns:inkscape="http://www.inkscape.org/namespaces/inkscape"
   width="101.40917"
   height="101.40916"
   id="svg2"
   version="1.1"
   inkscape:version="0.48.2 r9819"
   sodipodi:docname="1-south.svg">
  <defs
     id="defs4" />
  <sodipodi:namedview
     id="base"
     pagecolor="#ffffff"
     bordercolor="#666666"
     borderopacity="1.0"
     inkscape:pageopacity="0.0"
     inkscape:pageshadow="2"
     inkscape:zoom="2.8284271"
     inkscape:cx="160.88282"
     inkscape:cy="31.999997"
     inkscape:document-units="px"
     inkscape:current-layer="layer1"
     showgrid="false"
     showguides="true"
     inkscape:guide-bbox="true"
     inkscape:window-width="1436"
     inkscape:window-height="856"
     inkscape:window-x="4"
     inkscape:window-y="0"
     inkscape:window-maximized="1"
     fit-margin-top="0"
     fit-margin-left="0"
     fit-margin-right="0"
     fit-margin-bottom="0">
    <sodipodi:guide
       orientation="0,1"
       position="-6.57106,0.49999738"
       id="guide2987" />
    <sodipodi:guide
       orientation="1,0"
       position="100.90917,46.461937"
       id="guide2989" />
    <sodipodi:guide
       orientation="0,1"
       position="-50.411684,100.90916"
       id="guide2997" />
    <sodipodi:guide
       orientation="1,0"
       position="0.5,66.968027"
       id="guide2999" />
    <sodipodi:guide
       orientation="1,0"
       position="40.09798,134.85029"
       id="guide3005" />
    <sodipodi:guide
       orientation="1,0"
       position="59.89697,100.90916"
       id="guide3007" />
    <sodipodi:guide
       orientation="0,1"
       position="47.16905,90.656107"
       id="guide3011" />
    <sodipodi:guide
       orientation="0,1"
       position="48.22971,10.399487"
       id="guide3013" />
    <sodipodi:guide
       orientation="1,0"
       position="11.10661,100.90916"
       id="guide3015" />
    <sodipodi:guide
       orientation="1,0"
       position="91.00967,90.656107"
       id="guide3017" />
  </sodipodi:namedview>
  <metadata
     id="metadata7">
    <rdf:RDF>
      <cc:Work
         rdf:about="">
        <dc:format>image/svg+xml</dc:format>
        <dc:type
           rdf:resource="http://purl.org/dc/dcmitype/StillImage" />
        <dc:title />
      </cc:Work>
    </rdf:RDF>
  </metadata>
  <g
     inkscape:label="Layer 1"
     inkscape:groupmode="layer"
     id="layer1"
     transform="translate(-150.11374,-101.51067)">
    <path
       style="fill:none;stroke:#000000;stroke-width:1px;stroke-linecap:butt;stroke-linejoin:miter;stroke-opacity:1"
       d="m 251.02291,202.41983 c 0,0 0,0 0,-100.40916 0,0 0,0 -100.40917,0 l 0,100.40916 c 39.59798,0 39.59798,0 39.59798,0"
       id="path3003"
       inkscape:connector-curvature="0" />
    <path
       style="fill:none;stroke:#000000;stroke-width:1px;stroke-linecap:butt;stroke-linejoin:miter;stroke-opacity:1"
       d="m 210.01071,202.41983 c 41.0122,0 41.0122,0 41.0122,0"
       id="path3009"
       inkscape:connector-curvature="0" />
    <path
       style="fill:none;stroke:#000000;stroke-width:1px;stroke-linecap:butt;stroke-linejoin:miter;stroke-opacity:1"
       d="m 161.22035,112.26372 c 79.90306,0 79.90306,0 79.90306,0 0,80.25662 0,80.25662 0,80.25662 -31.1127,0 -31.1127,0 -31.1127,0 0,9.89949 0,9.89949 0,9.89949"
       id="path3021"
       inkscape:connector-curvature="0" />
    <path
       style="fill:none;stroke:#000000;stroke-width:1px;stroke-linecap:butt;stroke-linejoin:miter;stroke-opacity:1"
       d="m 190.21172,202.41983 c 0,0 0,0 0,-9.89949 -28.99137,0 -28.99137,0 -28.99137,0"
       id="path3023"
       inkscape:connector-curvature="0" />
    <path
       style="fill:none;stroke:#000000;stroke-width:1px;stroke-linecap:butt;stroke-linejoin:miter;stroke-opacity:1"
       d="m 161.22035,112.26372 c 0,80.25662 0,80.25662 0,80.25662"
       id="path3025"
       inkscape:connector-curvature="0" />
    <path
       style="fill:#000000"
       d="m 1.0766861,50.706185 0,-49.6742515 49.4974749,0 49.497479,0 0,49.6742515 0,49.674255 -19.798994,0 -19.79899,0 0,-4.41942 0,-4.419418 15.55635,0 15.556349,0 0,-40.65864 0,-40.65864 -40.099393,0 c -22.054668,0 -40.351056,0.09657 -40.658642,0.214603 -0.505425,0.19395 -0.559246,4.086204 -0.559246,40.444037 0,36.357833 0.05382,40.250088 0.559246,40.444037 0.307586,0.118034 6.830646,0.214603 14.49569,0.214603 l 13.936443,0 0,4.419418 0,4.41942 -19.091884,0 -19.0918829,0 0,-49.674255 z"
       id="path2997"
       inkscape:connector-curvature="0"
       transform="translate(150.11374,101.51067)" />
  </g>
</svg>
