<?xml version="1.0" encoding="UTF-8" standalone="no"?>
<!-- Created with Inkscape (http://www.inkscape.org/) -->

<svg
   xmlns:osb="http://www.openswatchbook.org/uri/2009/osb"
   xmlns:dc="http://purl.org/dc/elements/1.1/"
   xmlns:cc="http://creativecommons.org/ns#"
   xmlns:rdf="http://www.w3.org/1999/02/22-rdf-syntax-ns#"
   xmlns:svg="http://www.w3.org/2000/svg"
   xmlns="http://www.w3.org/2000/svg"
   xmlns:xlink="http://www.w3.org/1999/xlink"
   xmlns:sodipodi="http://sodipodi.sourceforge.net/DTD/sodipodi-0.dtd"
   xmlns:inkscape="http://www.inkscape.org/namespaces/inkscape"
   width="390.81174"
   height="530.41174"
   id="svg2"
   version="1.1"
   inkscape:version="0.48.2 r9819"
   sodipodi:docname="bird-of-god-logo.svg">
  <defs
     id="defs4">
    <linearGradient
       id="linearGradient3799"
       osb:paint="solid">
      <stop
         style="stop-color:#ffffff;stop-opacity:1;"
         offset="0"
         id="stop3801" />
    </linearGradient>
    <linearGradient
       id="linearGradient3789"
       osb:paint="solid">
      <stop
         style="stop-color:#ffffff;stop-opacity:1;"
         offset="0"
         id="stop3791" />
    </linearGradient>
    <linearGradient
       inkscape:collect="always"
       xlink:href="#linearGradient3789"
       id="linearGradient3793"
       x1="173.76556"
       y1="623.8277"
       x2="415.14224"
       y2="623.8277"
       gradientUnits="userSpaceOnUse"
       gradientTransform="matrix(0.82761646,0,0,0.78300751,10.442716,-15.419137)" />
    <linearGradient
       inkscape:collect="always"
       xlink:href="#linearGradient3799"
       id="linearGradient3803"
       x1="478.84277"
       y1="657.50244"
       x2="612.62708"
       y2="657.50244"
       gradientUnits="userSpaceOnUse"
       gradientTransform="matrix(0.82761646,0,0,0.78300751,10.442716,-15.419137)" />
  </defs>
  <sodipodi:namedview
     id="base"
     pagecolor="#ffffff"
     bordercolor="#666666"
     borderopacity="1.0"
     inkscape:pageopacity="0.0"
     inkscape:pageshadow="2"
     inkscape:zoom="0.49497475"
     inkscape:cx="309.95709"
     inkscape:cy="234.09062"
     inkscape:document-units="px"
     inkscape:current-layer="layer2"
     showgrid="false"
     inkscape:window-width="1625"
     inkscape:window-height="1006"
     inkscape:window-x="55"
     inkscape:window-y="22"
     inkscape:window-maximized="1"
     fit-margin-top="0"
     fit-margin-left="0"
     fit-margin-right="0"
     fit-margin-bottom="0" />
  <metadata
     id="metadata7">
    <rdf:RDF>
      <cc:Work
         rdf:about="">
        <dc:format>image/svg+xml</dc:format>
        <dc:type
           rdf:resource="http://purl.org/dc/dcmitype/StillImage" />
        <dc:title></dc:title>
      </cc:Work>
    </rdf:RDF>
  </metadata>
  <g
     inkscape:groupmode="layer"
     id="layer2"
     inkscape:label="turkey"
     style="display:inline"
     transform="translate(-135.2456,-191.1868)">
    <path
       style="fill:#ffffff;fill-opacity:1;stroke:#000000;stroke-width:4.02501488;stroke-linecap:round;stroke-linejoin:round;stroke-miterlimit:4;stroke-opacity:1;stroke-dasharray:none"
       d="m 210.66924,466.49945 c 0,0 -8.7782,-53.38961 -19.22844,-75.93187 -10.45023,-22.54229 -44.309,-82.25952 -45.98104,-86.6098 -1.67203,-4.35027 -8.36018,-27.28801 -2.92606,-30.45183 5.43411,-3.16383 16.72037,-7.11862 27.17062,5.93217 10.45024,13.05079 47.23505,70.79065 49.3251,72.37256 2.09005,1.58193 16.30237,14.63272 18.81042,15.02819 2.50807,0.39547 -4.18008,-92.93745 -5.85214,-107.57016 -1.67202,-14.6327 -2.50803,-50.22577 10.45026,-51.80768 12.95829,-1.58191 25.08057,5.93218 28.42464,21.75132 3.34407,15.81913 7.10614,91.35553 12.12227,102.82441 5.01611,11.46888 4.18009,18.58749 4.18009,18.58749 0,0 12.54028,-69.9997 12.95829,-77.90928 0.418,-7.90957 2.50805,-62.09012 3.34408,-66.04489 0.83601,-3.9548 12.12229,-13.05081 17.97441,-13.44628 5.85212,-0.39547 15.88436,3.95478 17.97441,16.21461 2.09003,12.25984 0.83601,41.12978 0.83601,53.78508 0,12.65532 -3.76209,76.32735 -2.50807,81.46857 1.25404,5.14124 2.09005,7.90959 2.09005,7.90959 0,0 25.9166,-58.53083 28.42465,-64.85849 2.50806,-6.32766 17.97441,-50.62124 19.22843,-53.38961 1.25404,-2.76833 14.21232,-11.07337 20.90047,-9.88695 6.68815,1.18644 14.21232,11.46888 13.3763,23.33323 -0.83601,11.86437 -26.75259,89.37815 -26.75259,89.37815 0,0 -15.04834,29.26542 -14.63034,31.63829 0.41801,2.37286 -5.85212,48.24837 -4.18008,52.59863 1.67202,4.35027 6.27013,19.37845 10.45023,20.96037 4.1801,1.58191 33.02274,-9.88697 40.54692,-20.16941 7.52417,-10.28244 30.93269,-47.06195 37.62084,-49.03933 6.68814,-1.9774 21.31848,-12.65531 33.85876,-7.90957 12.54029,4.74573 20.06445,10.28244 8.7782,30.05636 -11.28626,19.77392 -29.26065,47.45743 -36.36681,52.20316 -7.10616,4.74574 -32.18673,31.24281 -33.44076,35.1976 -1.25404,3.95478 -32.60474,33.61567 -37.20284,38.75689 -4.5981,5.14122 -23.82655,36.38402 -32.18673,39.94333 -8.36019,3.55931 -71.89762,12.25984 -86.94595,6.32765 -15.04835,-5.93218 -53.92322,-12.65531 -62.28342,-41.52525 -8.36018,-28.86992 -8.36018,-59.71725 -8.36018,-59.71725 z"
       id="path2997"
       inkscape:connector-curvature="0" />
  </g>
  <g
     inkscape:groupmode="layer"
     id="layer10"
     inkscape:label="text"
     transform="translate(-135.2456,-191.1868)">
    <text
       xml:space="preserve"
       style="font-size:93.35037994px;font-style:normal;font-weight:normal;line-height:125%;letter-spacing:0px;word-spacing:0px;fill:#000000;fill-opacity:1;stroke:none;font-family:Sans"
       x="169.81488"
       y="543.96155"
       id="text4011"
       sodipodi:linespacing="125%"
       transform="scale(0.75566034,1.3233459)"><tspan
         sodipodi:role="line"
         id="tspan4013"
         x="169.81488"
         y="543.96155">Bird of God</tspan></text>
  </g>
  <g
     inkscape:groupmode="layer"
     id="layer3"
     inkscape:label="wings"
     style="display:inline"
     transform="translate(-135.2456,-191.1868)">
    <path
       style="fill:url(#linearGradient3793);fill-opacity:1;stroke:#000000;stroke-width:4.83001804;stroke-linecap:round;stroke-linejoin:round;stroke-miterlimit:4;stroke-opacity:1;stroke-dasharray:none"
       d="m 314.75359,440.79335 c 0,0 -48.4891,28.47445 -69.80757,32.03376 -21.31848,3.55929 -80.25782,10.28244 -87.78198,7.51409 -7.52417,-2.76835 86.52794,26.10158 109.51848,24.91514 22.9905,-1.18643 67.71752,-7.90956 84.8559,-26.49705"
       id="path3787"
       inkscape:connector-curvature="0" />
    <path
       style="fill:url(#linearGradient3803);fill-opacity:1;stroke:#000000;stroke-width:4.83001804;stroke-linecap:round;stroke-linejoin:round;stroke-miterlimit:4;stroke-opacity:1;stroke-dasharray:none"
       d="m 439.7384,481.92311 c 0,0 9.19621,13.05081 25.08057,16.21463 15.88436,3.16382 50.16114,5.53669 50.16114,5.53669 0,0 -40.96493,12.25983 -55.59525,12.25983 -14.63034,0 -31.35071,3.16384 -50.16116,-1.97738"
       id="path3797"
       inkscape:connector-curvature="0" />
  </g>
  <g
     inkscape:groupmode="layer"
     id="layer4"
     inkscape:label="legs and beak"
     style="display:inline"
     transform="translate(-135.2456,-191.1868)">
    <path
       style="fill:#ff8500;fill-opacity:1;stroke:#ff8500;stroke-width:5.30805731;stroke-linecap:round;stroke-linejoin:miter;stroke-miterlimit:4;stroke-opacity:1;stroke-dasharray:none"
       d="m 281.90732,549.77846 -31.70366,62.02857"
       id="path3806"
       inkscape:connector-curvature="0" />
    <path
       style="fill:none;stroke:#ff8a00;stroke-width:4.02501488;stroke-linecap:round;stroke-linejoin:miter;stroke-miterlimit:4;stroke-opacity:1;stroke-dasharray:none"
       d="m 256.23226,601.7531 6.27014,8.70053"
       id="path3808"
       inkscape:connector-curvature="0" />
    <path
       style="fill:none;stroke:#ff8a00;stroke-width:4.02501488;stroke-linecap:round;stroke-linejoin:round;stroke-miterlimit:4;stroke-opacity:1;stroke-dasharray:none"
       d="m 241.18393,606.10338 14.21232,-5.14123"
       id="path3810"
       inkscape:connector-curvature="0" />
    <path
       style="fill:none;stroke:#ff8a00;stroke-width:4.02501488;stroke-linecap:round;stroke-linejoin:miter;stroke-miterlimit:4;stroke-opacity:1;stroke-dasharray:none"
       d="m 356.97254,564.97361 c 0,0 27.17062,28.47445 33.85877,31.63827"
       id="path3812"
       inkscape:connector-curvature="0" />
    <path
       style="fill:none;stroke:#ff8a00;stroke-width:4.02501488;stroke-linecap:round;stroke-linejoin:miter;stroke-miterlimit:4;stroke-opacity:1;stroke-dasharray:none"
       d="m 381.21709,589.49326 -1.67204,13.44628"
       id="path3814"
       inkscape:connector-curvature="0" />
    <path
       style="fill:none;stroke:#ff8a00;stroke-width:4.02501488;stroke-linecap:round;stroke-linejoin:miter;stroke-miterlimit:4;stroke-opacity:1;stroke-dasharray:none"
       d="m 397.51946,585.14302 -16.30237,3.95478"
       id="path3816"
       inkscape:connector-curvature="0" />
  </g>
  <g
     inkscape:groupmode="layer"
     id="layer5"
     inkscape:label="beak"
     style="display:inline"
     transform="translate(-135.2456,-191.1868)">
    <path
       style="fill:#ff8500;fill-opacity:1;stroke:none;display:inline"
       d="m 484.25642,395.7088 41.80093,7.90958 -43.05497,7.11861"
       id="path3818"
       inkscape:connector-curvature="0" />
  </g>
  <g
     inkscape:groupmode="layer"
     id="layer9"
     inkscape:label="necklace"
     style="display:inline"
     transform="translate(-135.2456,-191.1868)">
    <path
       sodipodi:type="arc"
       style="fill:none;stroke:#ffdb00;stroke-width:2;stroke-linecap:round;stroke-linejoin:round;stroke-miterlimit:4;stroke-opacity:1;stroke-dasharray:none;stroke-dashoffset:0"
       id="path3967"
       sodipodi:cx="506.33896"
       sodipodi:cy="565.46863"
       sodipodi:rx="6.3134532"
       sodipodi:ry="6.5659914"
       d="m 512.65241,565.46863 c 0,3.62629 -2.82663,6.56599 -6.31345,6.56599 -3.48683,0 -6.31345,-2.9397 -6.31345,-6.56599 0,-3.6263 2.82662,-6.56599 6.31345,-6.56599 3.48682,0 6.31345,2.93969 6.31345,6.56599 z"
       transform="matrix(0.82761645,0,0,0.7830075,10.442717,-15.41912)" />
    <path
       sodipodi:type="arc"
       style="fill:none;stroke:#ffdb00;stroke-width:2;stroke-linecap:round;stroke-linejoin:round;stroke-miterlimit:4;stroke-opacity:1;stroke-dasharray:none;stroke-dashoffset:0"
       id="path3969"
       sodipodi:cx="512.90497"
       sodipodi:cy="572.79224"
       sodipodi:rx="5.8083773"
       sodipodi:ry="6.3134532"
       d="m 518.71335,572.79224 c 0,3.48682 -2.6005,6.31345 -5.80838,6.31345 -3.20788,0 -5.80838,-2.82663 -5.80838,-6.31345 0,-3.48683 2.6005,-6.31346 5.80838,-6.31346 3.20788,0 5.80838,2.82663 5.80838,6.31346 z"
       transform="matrix(0.82761645,0,0,0.7830075,10.442717,-15.41912)" />
    <path
       sodipodi:type="arc"
       style="fill:none;stroke:#ffdb00;stroke-width:2;stroke-linecap:round;stroke-linejoin:round;stroke-miterlimit:4;stroke-opacity:1;stroke-dasharray:none;stroke-dashoffset:0"
       id="path3971"
       sodipodi:cx="517.19812"
       sodipodi:cy="578.85315"
       sodipodi:rx="5.5558391"
       sodipodi:ry="5.3033009"
       d="m 522.75396,578.85315 c 0,2.92893 -2.48743,5.3033 -5.55584,5.3033 -3.06841,0 -5.55584,-2.37437 -5.55584,-5.3033 0,-2.92893 2.48743,-5.3033 5.55584,-5.3033 3.06841,0 5.55584,2.37437 5.55584,5.3033 z"
       transform="matrix(0.82761645,0,0,0.7830075,10.442717,-15.41912)" />
    <path
       sodipodi:type="arc"
       style="fill:none;stroke:#ffdb00;stroke-width:2;stroke-linecap:round;stroke-linejoin:round;stroke-miterlimit:4;stroke-opacity:1;stroke-dasharray:none;stroke-dashoffset:0"
       id="path3973"
       sodipodi:cx="522.75397"
       sodipodi:cy="587.18695"
       sodipodi:rx="5.5558391"
       sodipodi:ry="6.0609155"
       d="m 528.30981,587.18695 c 0,3.34735 -2.48744,6.06092 -5.55584,6.06092 -3.06841,0 -5.55584,-2.71357 -5.55584,-6.06092 0,-3.34735 2.48743,-6.06091 5.55584,-6.06091 3.0684,0 5.55584,2.71356 5.55584,6.06091 z"
       transform="matrix(0.82761645,0,0,0.7830075,10.442717,-15.41912)" />
    <path
       sodipodi:type="arc"
       style="fill:none;stroke:#ffdb00;stroke-width:2;stroke-linecap:round;stroke-linejoin:round;stroke-miterlimit:4;stroke-opacity:1;stroke-dasharray:none;stroke-dashoffset:0"
       id="path3975"
       sodipodi:cx="528.05725"
       sodipodi:cy="593.50037"
       sodipodi:rx="5.3033009"
       sodipodi:ry="5.3033009"
       d="m 533.36055,593.50037 c 0,2.92893 -2.37437,5.3033 -5.3033,5.3033 -2.92893,0 -5.3033,-2.37437 -5.3033,-5.3033 0,-2.92894 2.37437,-5.3033 5.3033,-5.3033 2.92893,0 5.3033,2.37436 5.3033,5.3033 z"
       transform="matrix(0.82761645,0,0,0.7830075,10.442717,-15.41912)" />
    <path
       sodipodi:type="arc"
       style="fill:none;stroke:#ffdb00;stroke-width:2;stroke-linecap:round;stroke-linejoin:round;stroke-miterlimit:4;stroke-opacity:1;stroke-dasharray:none;stroke-dashoffset:0"
       id="path3977"
       sodipodi:cx="535.1283"
       sodipodi:cy="600.82397"
       sodipodi:rx="5.8083773"
       sodipodi:ry="5.5558391"
       d="m 540.93667,600.82397 c 0,3.06841 -2.6005,5.55584 -5.80837,5.55584 -3.20788,0 -5.80838,-2.48743 -5.80838,-5.55584 0,-3.0684 2.6005,-5.55583 5.80838,-5.55583 3.20787,0 5.80837,2.48743 5.80837,5.55583 z"
       transform="matrix(0.82761645,0,0,0.7830075,10.442717,-15.41912)" />
    <path
       sodipodi:type="arc"
       style="fill:none;stroke:#ffdb00;stroke-width:2;stroke-linecap:round;stroke-linejoin:round;stroke-miterlimit:4;stroke-opacity:1;stroke-dasharray:none;stroke-dashoffset:0"
       id="path3979"
       sodipodi:cx="541.69427"
       sodipodi:cy="595.52069"
       sodipodi:rx="5.3033009"
       sodipodi:ry="6.3134532"
       d="m 546.99758,595.52069 c 0,3.48682 -2.37437,6.31345 -5.30331,6.31345 -2.92893,0 -5.3033,-2.82663 -5.3033,-6.31345 0,-3.48682 2.37437,-6.31345 5.3033,-6.31345 2.92894,0 5.30331,2.82663 5.30331,6.31345 z"
       transform="matrix(0.82761645,0,0,0.7830075,10.442717,-15.41912)" />
    <path
       sodipodi:type="arc"
       style="fill:none;stroke:#ffdb00;stroke-width:2;stroke-linecap:round;stroke-linejoin:round;stroke-miterlimit:4;stroke-opacity:1;stroke-dasharray:none;stroke-dashoffset:0"
       id="path3981"
       sodipodi:cx="548.00775"
       sodipodi:cy="589.20721"
       sodipodi:rx="5.5558391"
       sodipodi:ry="6.0609155"
       d="m 553.56359,589.20721 c 0,3.34736 -2.48743,6.06092 -5.55584,6.06092 -3.0684,0 -5.55584,-2.71356 -5.55584,-6.06092 0,-3.34735 2.48744,-6.06091 5.55584,-6.06091 3.06841,0 5.55584,2.71356 5.55584,6.06091 z"
       transform="matrix(0.82761645,0,0,0.7830075,10.442717,-15.41912)" />
    <path
       sodipodi:type="arc"
       style="fill:none;stroke:#ffdb00;stroke-width:2;stroke-linecap:round;stroke-linejoin:round;stroke-miterlimit:4;stroke-opacity:1;stroke-dasharray:none;stroke-dashoffset:0"
       id="path3983"
       sodipodi:cx="557.09912"
       sodipodi:cy="585.67169"
       sodipodi:rx="5.5558391"
       sodipodi:ry="5.5558391"
       d="m 562.65496,585.67169 c 0,3.06841 -2.48743,5.55584 -5.55584,5.55584 -3.0684,0 -5.55584,-2.48743 -5.55584,-5.55584 0,-3.0684 2.48744,-5.55584 5.55584,-5.55584 3.06841,0 5.55584,2.48744 5.55584,5.55584 z"
       transform="matrix(0.82761645,0,0,0.7830075,10.442717,-15.41912)" />
    <path
       sodipodi:type="arc"
       style="fill:none;stroke:#ffdb00;stroke-width:2;stroke-linecap:round;stroke-linejoin:round;stroke-miterlimit:4;stroke-opacity:1;stroke-dasharray:none;stroke-dashoffset:0"
       id="path3985"
       sodipodi:cx="534.37067"
       sodipodi:cy="609.15778"
       sodipodi:rx="6.0609155"
       sodipodi:ry="5.8083773"
       d="m 540.43158,609.15778 c 0,3.20787 -2.71356,5.80837 -6.06091,5.80837 -3.34735,0 -6.06092,-2.6005 -6.06092,-5.80837 0,-3.20788 2.71357,-5.80838 6.06092,-5.80838 3.34735,0 6.06091,2.6005 6.06091,5.80838 z"
       transform="matrix(0.82761645,0,0,0.7830075,10.442717,-15.41912)" />
    <path
       style="fill:none;stroke:#ffdb00;stroke-width:1.61000597;stroke-linecap:butt;stroke-linejoin:miter;stroke-miterlimit:4;stroke-opacity:1;stroke-dasharray:none"
       d="m 452.27868,464.52205 -2.09005,24.12421"
       id="path3987"
       inkscape:connector-curvature="0" />
    <path
       style="fill:none;stroke:#ffdb00;stroke-width:1.61000597;stroke-linecap:butt;stroke-linejoin:miter;stroke-miterlimit:4;stroke-opacity:1;stroke-dasharray:none"
       d="m 444.75452,475.99095 13.3763,1.97738"
       id="path3989"
       inkscape:connector-curvature="0" />
  </g>
  <g
     inkscape:groupmode="layer"
     id="layer6"
     inkscape:label="beard and hair"
     style="display:inline"
     transform="translate(-135.2456,-191.1868)">
    <path
       style="fill:none;stroke:#764b14;stroke-width:1.61000597;stroke-linecap:round;stroke-linejoin:miter;stroke-miterlimit:4;stroke-opacity:0.93777759;stroke-dasharray:3.22001214, 1.61000608, 0.80500304, 1.61000608;stroke-dashoffset:0"
       d="m 465.65499,389.38114 -11.28626,7.90958"
       id="path3860"
       inkscape:connector-curvature="0" />
    <path
       style="fill:none;stroke:#764b14;stroke-width:1.61000597;stroke-linecap:round;stroke-linejoin:miter;stroke-miterlimit:4;stroke-opacity:0.93777759;stroke-dasharray:3.22001214, 1.61000608, 0.80500304, 1.61000608;stroke-dashoffset:0"
       d="m 468.99907,392.94045 c 0,0 -12.54029,6.32765 -13.3763,7.90957"
       id="path3862"
       inkscape:connector-curvature="0" />
    <path
       style="fill:none;stroke:#764b14;stroke-width:1.61000597;stroke-linecap:round;stroke-linejoin:miter;stroke-miterlimit:4;stroke-opacity:0.93777759;stroke-dasharray:3.22001214, 1.61000608, 0.80500304, 1.61000608;stroke-dashoffset:0"
       d="m 470.6711,397.29072 -15.04833,6.32766"
       id="path3864"
       inkscape:connector-curvature="0" />
    <path
       style="fill:none;stroke:#764b14;stroke-width:1.61000597;stroke-linecap:round;stroke-linejoin:miter;stroke-miterlimit:4;stroke-opacity:0.93777759;stroke-dasharray:3.22001214, 1.61000608, 0.80500304, 1.61000608;stroke-dashoffset:0"
       d="m 470.6711,401.64098 -14.63033,6.32766"
       id="path3866"
       inkscape:connector-curvature="0" />
    <path
       style="fill:none;stroke:#764b14;stroke-width:1.61000597;stroke-linecap:round;stroke-linejoin:miter;stroke-miterlimit:4;stroke-opacity:0.93777759;stroke-dasharray:3.22001214, 1.61000608, 0.80500304, 1.61000608;stroke-dashoffset:0"
       d="m 471.92514,406.38671 -15.46636,5.53671"
       id="path3868"
       inkscape:connector-curvature="0" />
    <path
       style="fill:none;stroke:#764b14;stroke-width:1.61000597;stroke-linecap:round;stroke-linejoin:miter;stroke-miterlimit:4;stroke-opacity:0.93777759;stroke-dasharray:3.22001214, 1.61000608, 0.80500304, 1.61000608;stroke-dashoffset:0"
       d="m 470.6711,409.94602 -14.21232,5.93218"
       id="path3870"
       inkscape:connector-curvature="0" />
    <path
       style="fill:none;stroke:#764b14;stroke-width:1.61000597;stroke-linecap:round;stroke-linejoin:miter;stroke-miterlimit:4;stroke-opacity:0.93777759;stroke-dasharray:3.22001214, 1.61000608, 0.80500304, 1.61000608;stroke-dashoffset:0"
       d="m 471.50711,413.10984 -11.28624,7.90959"
       id="path3872"
       inkscape:connector-curvature="0" />
    <path
       style="fill:none;stroke:#764b14;stroke-width:1.61000597;stroke-linecap:round;stroke-linejoin:miter;stroke-miterlimit:4;stroke-opacity:0.93777759;stroke-dasharray:3.22001214, 1.61000608, 0.80500304, 1.61000608;stroke-dashoffset:0"
       d="m 473.59716,414.69177 -6.68814,10.67791"
       id="path3874"
       inkscape:connector-curvature="0" />
    <path
       style="fill:none;stroke:#764b14;stroke-width:1.61000597;stroke-linecap:round;stroke-linejoin:miter;stroke-miterlimit:4;stroke-opacity:0.93777759;stroke-dasharray:3.22001214, 1.61000608, 0.80500304, 1.61000608;stroke-dashoffset:0"
       d="m 478.19528,415.48273 -6.27014,13.05079"
       id="path3876"
       inkscape:connector-curvature="0" />
    <path
       style="fill:none;stroke:#764b14;stroke-width:1.61000597;stroke-linecap:round;stroke-linejoin:miter;stroke-miterlimit:4;stroke-opacity:0.93777759;stroke-dasharray:3.22001214, 1.61000608, 0.80500304, 1.61000608;stroke-dashoffset:0"
       d="m 481.53935,416.66917 -4.1801,11.46886"
       id="path3878"
       inkscape:connector-curvature="0" />
    <path
       style="fill:none;stroke:#764b14;stroke-width:1.61000597;stroke-linecap:round;stroke-linejoin:miter;stroke-miterlimit:4;stroke-opacity:0.93777759;stroke-dasharray:3.22001214, 1.61000608, 0.80500304, 1.61000608;stroke-dashoffset:0"
       d="m 484.46541,417.46012 -0.83602,9.096"
       id="path3880"
       inkscape:connector-curvature="0" />
    <path
       style="fill:none;stroke:#764b14;stroke-width:1.61000597;stroke-linecap:round;stroke-linejoin:miter;stroke-miterlimit:4;stroke-opacity:0.93777759;stroke-dasharray:3.22001214, 1.61000608, 0.80500304, 1.61000608;stroke-dashoffset:0"
       d="m 487.39147,416.66917 0.83603,7.51408"
       id="path3882"
       inkscape:connector-curvature="0" />
    <path
       style="fill:none;stroke:#764b14;stroke-width:1.61000597;stroke-linecap:round;stroke-linejoin:miter;stroke-miterlimit:4;stroke-opacity:0.93777759;stroke-dasharray:3.22001214, 1.61000608, 0.80500304, 1.61000608;stroke-dashoffset:0"
       d="m 491.15356,414.29628 0.41801,6.72315"
       id="path3884"
       inkscape:connector-curvature="0" />
    <path
       style="fill:none;stroke:#764b14;stroke-width:1.61000597;stroke-linecap:round;stroke-linejoin:miter;stroke-miterlimit:4;stroke-opacity:0.93777759;stroke-dasharray:3.22001214, 1.61000608, 0.80500304, 1.61000608;stroke-dashoffset:0"
       d="m 494.49763,411.52795 2.50807,3.95478"
       id="path3886"
       inkscape:connector-curvature="0" />
  </g>
  <g
     inkscape:groupmode="layer"
     id="layer7"
     inkscape:label="eyes"
     style="display:inline"
     transform="translate(-135.2456,-191.1868)">
    <path
       sodipodi:type="arc"
       style="fill:#000000;fill-opacity:1;stroke:#000000;stroke-width:2;stroke-linecap:round;stroke-linejoin:round;stroke-miterlimit:4;stroke-opacity:0.93777759;stroke-dasharray:4, 2, 1, 2;stroke-dashoffset:0"
       id="path3889"
       sodipodi:cx="578.56488"
       sodipodi:cy="506.87982"
       sodipodi:rx="5.3033009"
       sodipodi:ry="8.0812206"
       d="m 583.86818,506.87982 c 0,4.46314 -2.37437,8.08122 -5.3033,8.08122 -2.92893,0 -5.3033,-3.61808 -5.3033,-8.08122 0,-4.46313 2.37437,-8.08122 5.3033,-8.08122 2.92893,0 5.3033,3.61809 5.3033,8.08122 z"
       transform="matrix(0.82761645,0,0,0.7830075,10.442717,-15.41912)" />
    <path
       sodipodi:type="arc"
       style="fill:#000000;fill-opacity:1;stroke:#000000;stroke-width:2;stroke-linecap:round;stroke-linejoin:round;stroke-miterlimit:4;stroke-opacity:0.93777759;stroke-dasharray:4, 2, 1, 2;stroke-dashoffset:0"
       id="path3891"
       sodipodi:cx="597.00018"
       sodipodi:cy="503.84937"
       sodipodi:rx="3.0304577"
       sodipodi:ry="5.5558391"
       d="m 600.03064,503.84937 c 0,3.0684 -1.35678,5.55583 -3.03046,5.55583 -1.67367,0 -3.03045,-2.48743 -3.03045,-5.55583 0,-3.06841 1.35678,-5.55584 3.03045,-5.55584 1.67368,0 3.03046,2.48743 3.03046,5.55584 z"
       transform="matrix(0.82761645,0,0,0.7830075,6.262616,-9.0914762)" />
  </g>
  <g
     inkscape:groupmode="layer"
     id="layer8"
     inkscape:label="hair"
     style="display:inline"
     transform="translate(-135.2456,-191.1868)">
    <path
       style="fill:none;stroke:#6f4b2a;stroke-width:2.41500902;stroke-linecap:butt;stroke-linejoin:miter;stroke-miterlimit:4;stroke-opacity:1;stroke-dasharray:none"
       d="m 436.81234,391.75401 0.83602,-3.55931"
       id="path3894"
       inkscape:connector-curvature="0" />
    <path
       style="fill:none;stroke:#6f4b2a;stroke-width:2.41500902;stroke-linecap:butt;stroke-linejoin:miter;stroke-miterlimit:4;stroke-opacity:1;stroke-dasharray:none"
       d="m 440.15641,391.75401 0.83603,-5.14122"
       id="path3896"
       inkscape:connector-curvature="0" />
    <path
       style="fill:none;stroke:#6f4b2a;stroke-width:2.41500902;stroke-linecap:butt;stroke-linejoin:miter;stroke-miterlimit:4;stroke-opacity:1;stroke-dasharray:none"
       d="m 444.33651,390.1721 -1.25402,-5.93218"
       id="path3898"
       inkscape:connector-curvature="0" />
    <path
       style="fill:none;stroke:#6f4b2a;stroke-width:2.41500902;stroke-linecap:butt;stroke-linejoin:miter;stroke-miterlimit:4;stroke-opacity:1;stroke-dasharray:none"
       d="m 447.26257,399.2681 -0.83603,-7.90956"
       id="path3900"
       inkscape:connector-curvature="0" />
    <path
       style="fill:none;stroke:#6f4b2a;stroke-width:2.41500902;stroke-linecap:butt;stroke-linejoin:miter;stroke-miterlimit:4;stroke-opacity:1;stroke-dasharray:none"
       d="m 451.86068,395.31332 -1.25402,-5.53669"
       id="path3902"
       inkscape:connector-curvature="0" />
    <path
       style="fill:none;stroke:#6f4b2a;stroke-width:2.41500902;stroke-linecap:butt;stroke-linejoin:miter;stroke-miterlimit:4;stroke-opacity:1;stroke-dasharray:none"
       d="m 446.84457,385.03088 8.36017,1.9774"
       id="path3904"
       inkscape:connector-curvature="0" />
    <path
       style="fill:none;stroke:#6f4b2a;stroke-width:2.41500902;stroke-linecap:butt;stroke-linejoin:miter;stroke-miterlimit:4;stroke-opacity:1;stroke-dasharray:none"
       d="m 451.44267,380.68063 6.68815,2.76834"
       id="path3906"
       inkscape:connector-curvature="0" />
    <path
       style="fill:none;stroke:#6f4b2a;stroke-width:2.41500902;stroke-linecap:butt;stroke-linejoin:miter;stroke-miterlimit:4;stroke-opacity:1;stroke-dasharray:none"
       d="m 457.29481,377.51679 10.03222,1.58191"
       id="path3908"
       inkscape:connector-curvature="0" />
    <path
       style="fill:none;stroke:#6f4b2a;stroke-width:2.41500902;stroke-linecap:butt;stroke-linejoin:miter;stroke-miterlimit:4;stroke-opacity:1;stroke-dasharray:none"
       d="m 464.81897,373.562 7.10617,3.16382"
       id="path3910"
       inkscape:connector-curvature="0" />
    <path
       style="fill:none;stroke:#6f4b2a;stroke-width:2.41500902;stroke-linecap:butt;stroke-linejoin:miter;stroke-miterlimit:4;stroke-opacity:1;stroke-dasharray:none"
       d="m 474.8512,369.21173 5.0161,3.55931"
       id="path3912"
       inkscape:connector-curvature="0" />
    <path
       style="fill:none;stroke:#6f4b2a;stroke-width:2.41500902;stroke-linecap:butt;stroke-linejoin:miter;stroke-miterlimit:4;stroke-opacity:1;stroke-dasharray:none"
       d="m 482.37536,368.42078 6.27015,3.16384"
       id="path3914"
       inkscape:connector-curvature="0" />
    <path
       style="fill:none;stroke:#6f4b2a;stroke-width:2.41500902;stroke-linecap:butt;stroke-linejoin:miter;stroke-miterlimit:4;stroke-opacity:1;stroke-dasharray:none"
       d="m 494.49763,365.65244 0,4.74574"
       id="path3916"
       inkscape:connector-curvature="0" />
    <path
       style="fill:none;stroke:#6f4b2a;stroke-width:2.41500902;stroke-linecap:butt;stroke-linejoin:miter;stroke-miterlimit:4;stroke-opacity:1;stroke-dasharray:none"
       d="m 498.25972,366.83887 0,3.95479"
       id="path3918"
       inkscape:connector-curvature="0" />
    <path
       style="fill:none;stroke:#6f4b2a;stroke-width:2.41500902;stroke-linecap:butt;stroke-linejoin:miter;stroke-miterlimit:4;stroke-opacity:1;stroke-dasharray:none"
       d="m 504.94787,369.21173 -0.83601,3.9548"
       id="path3920"
       inkscape:connector-curvature="0" />
    <path
       style="fill:none;stroke:#6f4b2a;stroke-width:2.41500902;stroke-linecap:butt;stroke-linejoin:miter;stroke-miterlimit:4;stroke-opacity:1;stroke-dasharray:none"
       d="m 512.89006,371.18913 -4.1801,5.93218"
       id="path3922"
       inkscape:connector-curvature="0" />
    <path
       style="fill:none;stroke:#6f4b2a;stroke-width:2.41500902;stroke-linecap:butt;stroke-linejoin:miter;stroke-miterlimit:4;stroke-opacity:1;stroke-dasharray:none"
       d="m 519.16019,377.12131 -6.27013,5.14122"
       id="path3924"
       inkscape:connector-curvature="0" />
    <path
       style="fill:none;stroke:#6f4b2a;stroke-width:2.41500902;stroke-linecap:butt;stroke-linejoin:miter;stroke-miterlimit:4;stroke-opacity:1;stroke-dasharray:none"
       d="m 521.66825,383.05348 -10.45023,4.35027"
       id="path3926"
       inkscape:connector-curvature="0" />
    <path
       style="fill:none;stroke:#6f4b2a;stroke-width:2.41500902;stroke-linecap:butt;stroke-linejoin:miter;stroke-miterlimit:4;stroke-opacity:1;stroke-dasharray:none"
       d="m 450.18863,377.12131 1.67205,-2.76836 1.25401,2.76836 1.67205,-4.74574 2.50807,3.95478 1.67202,-3.55931"
       id="path3928"
       inkscape:connector-curvature="0" />
    <path
       style="fill:none;stroke:#6f4b2a;stroke-width:2.41500902;stroke-linecap:butt;stroke-linejoin:miter;stroke-miterlimit:4;stroke-opacity:1;stroke-dasharray:none"
       d="m 453.95072,368.42078 3.76209,-2.37287 -0.418,3.16382 3.34407,-2.37286 1.25401,3.55931 3.34409,-3.16384"
       id="path3930"
       inkscape:connector-curvature="0" />
    <path
       style="fill:none;stroke:#6f4b2a;stroke-width:2.41500902;stroke-linecap:butt;stroke-linejoin:miter;stroke-miterlimit:4;stroke-opacity:1;stroke-dasharray:none"
       d="m 461.47491,361.69765 4.18008,-0.39549 0.83601,3.9548 4.59812,-1.58191 0,1.97739 5.85212,-4.74575 2.50806,3.55931 2.50807,-2.76835 2.50804,3.95479"
       id="path3932"
       inkscape:connector-curvature="0" />
    <path
       style="fill:none;stroke:#6f4b2a;stroke-width:2.41500902;stroke-linecap:butt;stroke-linejoin:miter;stroke-miterlimit:4;stroke-opacity:1;stroke-dasharray:none"
       d="m 479.4493,355.36999 5.43413,1.18644 -1.67204,2.76835 4.18008,-1.18644 0.83603,3.95478 3.34407,-2.76834 0.41802,3.16382 2.50804,-1.18644"
       id="path3934"
       inkscape:connector-curvature="0" />
    <path
       style="fill:none;stroke:#6f4b2a;stroke-width:2.41500902;stroke-linecap:butt;stroke-linejoin:miter;stroke-miterlimit:4;stroke-opacity:1;stroke-dasharray:none"
       d="m 499.09573,364.86147 -2.92606,-3.95478 5.01611,-0.39547 -2.09005,-3.16384"
       id="path3936"
       inkscape:connector-curvature="0" />
    <path
       style="fill:none;stroke:#6f4b2a;stroke-width:2.41500902;stroke-linecap:butt;stroke-linejoin:miter;stroke-miterlimit:4;stroke-opacity:1;stroke-dasharray:none"
       d="m 451.86068,388.98567 4.5981,4.74574 -0.41801,-7.51411 4.59811,2.37289 0.418,-6.72315 5.01613,3.55933 0,-5.14124 5.4341,1.18644 0.41803,-3.16382 3.34408,-0.39549"
       id="path3938"
       inkscape:connector-curvature="0" />
    <path
       style="fill:none;stroke:#6f4b2a;stroke-width:2.41500902;stroke-linecap:butt;stroke-linejoin:miter;stroke-miterlimit:4;stroke-opacity:1;stroke-dasharray:none"
       d="m 505.36588,376.72582 -0.41801,5.14122 6.27015,-1.18641 -2.92606,4.74574 13.79431,1.97738"
       id="path3940"
       inkscape:connector-curvature="0" />
    <path
       style="fill:none;stroke:#6f4b2a;stroke-width:2.41500902;stroke-linecap:butt;stroke-linejoin:miter;stroke-miterlimit:4;stroke-opacity:1;stroke-dasharray:none"
       d="m 502.43982,394.12688 4.1801,-1.58191 0,3.5593 3.34408,-0.39547 0,2.76836"
       id="path3942"
       inkscape:connector-curvature="0" />
    <path
       style="fill:none;stroke:#6f4b2a;stroke-width:2.41500902;stroke-linecap:butt;stroke-linejoin:miter;stroke-miterlimit:4;stroke-opacity:1;stroke-dasharray:none"
       d="m 517.07014,389.77663 -0.418,3.16382 3.34408,-0.79095 1.67203,3.95477"
       id="path3944"
       inkscape:connector-curvature="0" />
  </g>
</svg>
